<svg xmlns="http://www.w3.org/2000/svg" xmlns:xlink="http://www.w3.org/1999/xlink" fill="none" version="1.1" width="512" height="512" viewBox="0 0 512 512"><defs><filter id="master_svg0_60_1103" filterUnits="objectBoundingBox" color-interpolation-filters="sRGB" x="0" y="0" width="1" height="1"><feFlood flood-opacity="0" result="BackgroundImageFix"/><feBlend mode="normal" in="SourceGraphic" in2="BackgroundImageFix" result="shape"/><feGaussianBlur in="BackgroundImageFix" stdDeviation="500"/><feComposite in2="SourceAlpha" operator="in" result="effect1_foregroundBlur"/><feBlend mode="normal" in="SourceGraphic" in2="effect1_foregroundBlur" result="shape"/></filter><clipPath id="master_svg1_60_1103"><rect x="0" y="0" width="512" height="512" rx="0"/></clipPath><filter id="master_svg2_60_1108" filterUnits="objectBoundingBox" color-interpolation-filters="sRGB" x="0" y="0" width="1" height="1"><feFlood flood-opacity="0" result="BackgroundImageFix"/><feBlend mode="normal" in="SourceGraphic" in2="BackgroundImageFix" result="shape"/><feColorMatrix in="SourceAlpha" type="matrix" result="hardAlpha" values="0 0 0 0 0 0 0 0 0 0 0 0 0 0 0 0 0 0 127 0"/><feOffset dy="12" dx="10"/><feGaussianBlur stdDeviation="8"/><feComposite in2="hardAlpha" operator="arithmetic" k2="-1" k3="1"/><feColorMatrix type="matrix" values="0 0 0 0 0 0 0 0 0 0 0 0 0 0 0 0 0 0 0.20000000298023224 0"/><feBlend mode="normal" in2="shape" result="effect1_innerShadow"/></filter><linearGradient x1="1" y1="0.6367156505584717" x2="0.43589350319992987" y2="1.0738364975213968" id="master_svg3_60_9009"><stop offset="0%" stop-color="#0DFF09" stop-opacity="1"/><stop offset="100%" stop-color="#0C9D6A" stop-opacity="1"/></linearGradient><linearGradient x1="0" y1="0" x2="0.7303192494027043" y2="0.9850134617019769" id="master_svg4_60_9010"><stop offset="0%" stop-color="#006F9A" stop-opacity="0.550000011920929"/><stop offset="56.8493127822876%" stop-color="#00D4FF" stop-opacity="0.6700000166893005"/><stop offset="100%" stop-color="#24ABFF" stop-opacity="1"/></linearGradient><clipPath id="master_svg5_60_1109"><rect x="79" y="78" width="352" height="352.0000305175781" rx="0"/></clipPath><filter id="master_svg6_60_1110" filterUnits="objectBoundingBox" color-interpolation-filters="sRGB" x="-0.07575757575757576" y="-0.05594404997455624" width="1.1515151515151516" height="1.1398601249363907"><feFlood flood-opacity="0" result="BackgroundImageFix"/><feColorMatrix in="SourceAlpha" type="matrix" values="0 0 0 0 0 0 0 0 0 0 0 0 0 0 0 0 0 0 127 0"/><feOffset dy="4" dx="0"/><feGaussianBlur stdDeviation="5"/><feColorMatrix type="matrix" values="0 0 0 0 0 0 0 0 0 0 0 0 0 0 0 0 0 0 0.30000001192092896 0"/><feBlend mode="normal" in2="BackgroundImageFix" result="effect1_dropShadow"/><feBlend mode="normal" in="SourceGraphic" in2="effect1_dropShadow" result="shape"/></filter></defs><g filter="url(#master_svg0_60_1103)"><g clip-path="url(#master_svg1_60_1103)"><g filter="url(#master_svg2_60_1108)"><path d="M251.831,17.796C253.812,16.652274,254.496,16.257232,255.224,16.10261C255.867,15.9657966,256.533,15.9657967,257.176,16.10261C257.904,16.257232,258.58799999999997,16.652274,260.56899999999996,17.79601L460.031,132.95600000000002C462.012,134.099,462.696,134.494,463.194,135.047C463.634,135.536,463.967,136.112,464.17,136.738C464.4,137.445,464.4,138.235,464.4,140.523L464.4,370.842C464.4,373.129,464.4,373.919,464.17,374.627C463.967,375.252,463.634,375.829,463.194,376.318C462.696,376.87,462.012,377.265,460.031,378.409L260.56899999999996,493.568C258.58799999999997,494.712,257.904,495.107,257.176,495.262C256.533,495.399,255.867,495.399,255.224,495.262C254.496,495.107,253.812,494.712,251.831,493.568L52.36892,378.409C50.38792,377.265,49.70369,376.87,49.20606,376.318C48.76576,375.829,48.433155,375.252,48.22982,374.627C48.00000716474,373.919,48.00000716474,373.129,48.00000716474,370.842L48,140.523C48,138.235,48,137.445,48.229813,136.738C48.433151,136.112,48.765756,135.536,49.20606,135.047C49.70368,134.494,50.38792,134.099,52.36892,132.95600000000002L251.831,17.796Z" fill="url(#master_svg3_60_9009)" fill-opacity="1"/><path d="M251.831,17.796C253.812,16.652274,254.496,16.257232,255.224,16.10261C255.867,15.9657966,256.533,15.9657967,257.176,16.10261C257.904,16.257232,258.58799999999997,16.652274,260.56899999999996,17.79601L460.031,132.95600000000002C462.012,134.099,462.696,134.494,463.194,135.047C463.634,135.536,463.967,136.112,464.17,136.738C464.4,137.445,464.4,138.235,464.4,140.523L464.4,370.842C464.4,373.129,464.4,373.919,464.17,374.627C463.967,375.252,463.634,375.829,463.194,376.318C462.696,376.87,462.012,377.265,460.031,378.409L260.56899999999996,493.568C258.58799999999997,494.712,257.904,495.107,257.176,495.262C256.533,495.399,255.867,495.399,255.224,495.262C254.496,495.107,253.812,494.712,251.831,493.568L52.36892,378.409C50.38792,377.265,49.70369,376.87,49.20606,376.318C48.76576,375.829,48.433155,375.252,48.22982,374.627C48.00000716474,373.919,48.00000716474,373.129,48.00000716474,370.842L48,140.523C48,138.235,48,137.445,48.229813,136.738C48.433151,136.112,48.765756,135.536,49.20606,135.047C49.70368,134.494,50.38792,134.099,52.36892,132.95600000000002L251.831,17.796Z" fill="url(#master_svg4_60_9010)" fill-opacity="1"/><path d="M251.831,17.796C253.812,16.652274,254.496,16.257232,255.224,16.10261C255.867,15.9657966,256.533,15.9657967,257.176,16.10261C257.904,16.257232,258.58799999999997,16.652274,260.56899999999996,17.79601L460.031,132.95600000000002C462.012,134.099,462.696,134.494,463.194,135.047C463.634,135.536,463.967,136.112,464.17,136.738C464.4,137.445,464.4,138.235,464.4,140.523L464.4,370.842C464.4,373.129,464.4,373.919,464.17,374.627C463.967,375.252,463.634,375.829,463.194,376.318C462.696,376.87,462.012,377.265,460.031,378.409L260.56899999999996,493.568C258.58799999999997,494.712,257.904,495.107,257.176,495.262C256.533,495.399,255.867,495.399,255.224,495.262C254.496,495.107,253.812,494.712,251.831,493.568L52.36892,378.409C50.38792,377.265,49.70369,376.87,49.20606,376.318C48.76576,375.829,48.433155,375.252,48.22982,374.627C48.00000716474,373.919,48.00000716474,373.129,48.00000716474,370.842L48,140.523C48,138.235,48,137.445,48.229813,136.738C48.433151,136.112,48.765756,135.536,49.20606,135.047C49.70368,134.494,50.38792,134.099,52.36892,132.95600000000002L251.831,17.796ZM144,190.904L256.2,126.125L368.4,190.904L368.4,320.461L256.2,385.24L144,320.461L144,190.904Z" fill-rule="evenodd" fill="#FFFFFF" fill-opacity="0.3499999940395355"/></g><g clip-path="url(#master_svg5_60_1109)"><g filter="url(#master_svg6_60_1110)"><g><path d="M277,122C313.3,122,349.6,122,387,122C387,158.3,387,194.6,387,232C379.74,232,372.48,232,365,232C365,239.26,365,246.51999999999998,365,254C357.74,254,350.48,254,343,254C343,261.26,343,268.52,343,276C335.74,276,328.48,276,321,276C321,283.26,321,290.52,321,298C313.74,298,306.48,298,299,298C299,305.26,299,312.52,299,320C291.74,320,284.48,320,277,320C277,327.26,277,334.52,277,342C269.74,342,262.48,342,255,342C255,349.26,255,356.52,255,364C247.74,364,240.48000000000002,364,233,364C233,371.26,233,378.52,233,386C225.74,386,218.48000000000002,386,211,386C211,393.26,211,400.52,211,408C196.48000000000002,408,181.96,408,167,408C167,400.74,167,393.48,167,386C159.74,386,152.48,386,145,386C145,378.74,145,371.48,145,364C137.74,364,130.48,364,123,364C123,334.96000000000004,123,305.91999999999996,123,276C130.26001,276,137.52,276,145,276C145,268.74,145,261.48,145,254C152.26,254,159.52,254,167,254C167,246.74,167,239.48000000000002,167,232C174.26,232,181.52,232,189,232C189,224.74,189,217.48000000000002,189,210C196.26,210,203.51999999999998,210,211,210C211,202.74,211,195.48000000000002,211,188C218.26,188,225.51999999999998,188,233,188C233,180.74,233,173.48,233,166C240.26,166,247.51999999999998,166,255,166C255,158.74,255,151.48,255,144C262.26,144,269.52,144,277,144C277,136.74,277,129.48,277,122Z" fill="#B38EF3" fill-opacity="1" style="mix-blend-mode:passthrough"/></g><g><path d="M145,254C152.26,254,159.52,254,167,254C167,261.26,167,268.52,167,276C181.52,276,196.04000000000002,276,211,276C211,283.26,211,290.52,211,298C218.26,298,225.51999999999998,298,233,298C233,312.52,233,327.04,233,342C240.26,342,247.51999999999998,342,255,342C255,349.26,255,356.52,255,364C247.74,364,240.48000000000002,364,233,364C233,371.26,233,378.52,233,386C225.74,386,218.48000000000002,386,211,386C211,393.26,211,400.52,211,408C196.48000000000002,408,181.96,408,167,408C167,400.74,167,393.48,167,386C159.74,386,152.48,386,145,386C145,378.74,145,371.48,145,364C137.74,364,130.48,364,123,364C123,334.96,123,305.92,123,276C130.26,276,137.52,276,145,276C145,268.74,145,261.48,145,254Z" fill="#8D6ACC" fill-opacity="1" style="mix-blend-mode:passthrough"/></g><g><path d="M277,122C313.3,122,349.6,122,387,122C387,158.3,387,194.6,387,232C379.74,232,372.48,232,365,232C365,239.26,365,246.51999999999998,365,254C357.74,254,350.48,254,343,254C343,261.26,343,268.52,343,276C335.74,276,328.48,276,321,276C321,283.26,321,290.52,321,298C313.74,298,306.48,298,299,298C299,268.96000000000004,299,239.92000000000002,299,210C313.52,210,328.04,210,343,210C343,202.74,343,195.48000000000002,343,188C350.26,188,357.52,188,365,188C365,173.48,365,158.96,365,144C335.96,144,306.92,144,277,144C277,136.74,277,129.48,277,122Z" fill="#6F4FAB" fill-opacity="1" style="mix-blend-mode:passthrough"/></g><g><path d="M211,188C225.52,188,240.04000000000002,188,255,188C255,238.82,255,289.64,255,342C247.74,342,240.48000000000002,342,233,342C233,327.48,233,312.96,233,298C225.74,298,218.48,298,211,298C211,290.74,211,283.48,211,276C196.48,276,181.96,276,167,276C167,261.48,167,246.96,167,232C174.26,232,181.52,232,189,232C189,224.74,189,217.48,189,210C196.26,210,203.52,210,211,210C211,202.74,211,195.48,211,188Z" fill="#CFA0F3" fill-opacity="1" style="mix-blend-mode:passthrough"/></g><g><path d="M123,298C130.26,298,137.52,298,145,298C145,305.26,145,312.52,145,320C166.78,320,188.56,320,211,320C211,334.52,211,349.04,211,364C203.74,364,196.48000000000002,364,189,364C189,371.26,189,378.52,189,386C196.26,386,203.51999999999998,386,211,386C211,393.26,211,400.52,211,408C196.48000000000002,408,181.96,408,167,408C167,400.74,167,393.48,167,386C159.74,386,152.48,386,145,386C145,378.74,145,371.48,145,364C137.74,364,130.48,364,123,364C123,342.22,123,320.44,123,298Z" fill="#54398A" fill-opacity="1" style="mix-blend-mode:passthrough"/></g><g><path d="M277,144C306.04,144,335.08,144,365,144C365,158.52,365,173.04,365,188C357.74,188,350.48,188,343,188C343,195.26,343,202.52,343,210C328.48,210,313.96,210,299,210C299,202.74,299,195.48,299,188C291.74,188,284.48,188,277,188C277,173.48,277,158.96,277,144Z" fill="#FECBE6" fill-opacity="1" style="mix-blend-mode:passthrough"/></g><g><path d="M277,122C313.3,122,349.6,122,387,122C387,158.3,387,194.6,387,232C379.74,232,372.48,232,365,232C365,202.95999999999998,365,173.92000000000002,365,144C335.96,144,306.92,144,277,144C277,136.74,277,129.48,277,122Z" fill="#6F4FAB" fill-opacity="1" style="mix-blend-mode:passthrough"/></g><g><path d="M233,188C240.26,188,247.52,188,255,188C255,238.82,255,289.64,255,342C247.74,342,240.48,342,233,342C233,327.48,233,312.96,233,298C225.74,298,218.48,298,211,298C211,290.74,211,283.48,211,276C218.26,276,225.52,276,233,276C233,246.96,233,217.92000000000002,233,188Z" fill="#B38EF3" fill-opacity="1" style="mix-blend-mode:passthrough"/></g><g><path d="M145,254C152.26,254,159.52,254,167,254C167,261.26,167,268.52,167,276C181.52,276,196.04000000000002,276,211,276C211,283.26,211,290.52,211,298C203.74,298,196.48000000000002,298,189,298C189,305.26,189,312.52,189,320C174.48,320,159.96,320,145,320C145,312.74,145,305.48,145,298C137.74,298,130.48,298,123,298C123,290.74,123,283.48,123,276C130.26,276,137.52,276,145,276C145,268.74,145,261.48,145,254Z" fill="#8D6ACC" fill-opacity="1" style="mix-blend-mode:passthrough"/></g><g><path d="M255,254C262.26,254,269.52,254,277,254C277,268.52,277,283.04,277,298C284.26,298,291.52,298,299,298C299,305.26,299,312.52,299,320C291.74,320,284.48,320,277,320C277,327.26,277,334.52,277,342C269.74,342,262.48,342,255,342C255,312.96,255,283.92,255,254Z" fill="#6F4FAB" fill-opacity="1" style="mix-blend-mode:passthrough"/></g><g><path d="M343,188C350.26,188,357.52,188,365,188C365,209.78,365,231.56,365,254C350.48,254,335.96,254,321,254C321,239.48,321,224.96,321,210C328.26,210,335.52,210,343,210C343,202.74,343,195.48,343,188Z" fill="#8D6ACC" fill-opacity="1" style="mix-blend-mode:passthrough"/></g><g><path d="M167,232C181.52,232,196.04,232,211,232C211,246.52,211,261.04,211,276C196.48,276,181.96,276,167,276C167,261.48,167,246.96,167,232Z" fill="#B38EF3" fill-opacity="1" style="mix-blend-mode:passthrough"/></g><g><path d="M233,188C240.26,188,247.52,188,255,188C255,217.04,255,246.07999999999998,255,276C247.74,276,240.48,276,233,276C233,246.96,233,217.92000000000002,233,188Z" fill="#FECBE6" fill-opacity="1" style="mix-blend-mode:passthrough"/></g><g><path d="M365,144C372.26,144,379.52,144,387,144C387,173.04,387,202.07999999999998,387,232C379.74,232,372.48,232,365,232C365,202.96,365,173.92000000000002,365,144Z" fill="#54398A" fill-opacity="1" style="mix-blend-mode:passthrough"/></g><g><path d="M277,232C284.26,232,291.52,232,299,232C299,253.78,299,275.56,299,298C291.74,298,284.48,298,277,298C277,276.22,277,254.44,277,232Z" fill="#8D6ACC" fill-opacity="1" style="mix-blend-mode:passthrough"/></g><g><path d="M167,386C181.52,386,196.04,386,211,386C211,393.26,211,400.52,211,408C196.48,408,181.96,408,167,408C167,400.74,167,393.48,167,386Z" fill="#6F4FAB" fill-opacity="1" style="mix-blend-mode:passthrough"/></g><g><path d="M189,364C203.52,364,218.04,364,233,364C233,371.26,233,378.52,233,386C218.48,386,203.96,386,189,386C189,378.74,189,371.48,189,364Z" fill="#6F4FAB" fill-opacity="1" style="mix-blend-mode:passthrough"/></g><g><path d="M189,364C196.26,364,203.52,364,211,364C211,371.26,211,378.52,211,386C203.74,386,196.48,386,189,386C189,378.74,189,371.48,189,364Z" fill="#8D6ACC" fill-opacity="1" style="mix-blend-mode:passthrough"/></g><g><path d="M233,342C240.26,342,247.52,342,255,342C255,349.26,255,356.52,255,364C247.74,364,240.48,364,233,364C233,356.74,233,349.48,233,342Z" fill="#54398A" fill-opacity="1" style="mix-blend-mode:passthrough"/></g><g><path d="M167,342C174.26,342,181.52,342,189,342C189,349.26,189,356.52,189,364C181.74,364,174.48,364,167,364C167,356.74,167,349.48,167,342Z" fill="#6F4FAB" fill-opacity="1" style="mix-blend-mode:passthrough"/></g><g><path d="M255,320C262.26,320,269.52,320,277,320C277,327.26,277,334.52,277,342C269.74,342,262.48,342,255,342C255,334.74,255,327.48,255,320Z" fill="#54398A" fill-opacity="1" style="mix-blend-mode:passthrough"/></g><g><path d="M189,320C196.26,320,203.52,320,211,320C211,327.26,211,334.52,211,342C203.74,342,196.48,342,189,342C189,334.74,189,327.48,189,320Z" fill="#6F4FAB" fill-opacity="1" style="mix-blend-mode:passthrough"/></g><g><path d="M277,298C284.26,298,291.52,298,299,298C299,305.26,299,312.52,299,320C291.74,320,284.48,320,277,320C277,312.74,277,305.48,277,298Z" fill="#54398A" fill-opacity="1" style="mix-blend-mode:passthrough"/></g><g><path d="M189,298C196.26,298,203.52,298,211,298C211,305.26,211,312.52,211,320C203.74,320,196.48,320,189,320C189,312.74,189,305.48,189,298Z" fill="#B38EF3" fill-opacity="1" style="mix-blend-mode:passthrough"/></g><g><path d="M145,298C152.26,298,159.52,298,167,298C167,305.26,167,312.52,167,320C159.74,320,152.48,320,145,320C145,312.74,145,305.48,145,298Z" fill="#6F4FAB" fill-opacity="1" style="mix-blend-mode:passthrough"/></g><g><path d="M299,276C306.26,276,313.52,276,321,276C321,283.26,321,290.52,321,298C313.74,298,306.48,298,299,298C299,290.74,299,283.48,299,276Z" fill="#54398A" fill-opacity="1" style="mix-blend-mode:passthrough"/></g><g><path d="M211,276C218.26,276,225.52,276,233,276C233,283.26,233,290.52,233,298C225.74,298,218.48,298,211,298C211,290.74,211,283.48,211,276Z" fill="#FECBE6" fill-opacity="1" style="mix-blend-mode:passthrough"/></g><g><path d="M123,276C130.26,276,137.52,276,145,276C145,283.26,145,290.52,145,298C137.74,298,130.48,298,123,298C123,290.74,123,283.48,123,276Z" fill="#6F4FAB" fill-opacity="1" style="mix-blend-mode:passthrough"/></g><g><path d="M321,254C328.26,254,335.52,254,343,254C343,261.26,343,268.52,343,276C335.74,276,328.48,276,321,276C321,268.74,321,261.48,321,254Z" fill="#54398A" fill-opacity="1" style="mix-blend-mode:passthrough"/></g><g><path d="M233,254C240.26,254,247.52,254,255,254C255,261.26,255,268.52,255,276C247.74,276,240.48,276,233,276C233,268.74,233,261.48,233,254Z" fill="#FFFDD5" fill-opacity="1" style="mix-blend-mode:passthrough"/></g><g><path d="M145,254C152.26,254,159.52,254,167,254C167,261.26,167,268.52,167,276C159.74,276,152.48,276,145,276C145,268.74,145,261.48,145,254Z" fill="#6F4FAB" fill-opacity="1" style="mix-blend-mode:passthrough"/></g><g><path d="M343,232C350.26,232,357.52,232,365,232C365,239.26,365,246.52,365,254C357.74,254,350.48,254,343,254C343,246.74,343,239.48,343,232Z" fill="#54398A" fill-opacity="1" style="mix-blend-mode:passthrough"/></g><g><path d="M255,232C262.26,232,269.52,232,277,232C277,239.26,277,246.52,277,254C269.74,254,262.48,254,255,254C255,246.74,255,239.48,255,232Z" fill="#CFA0F3" fill-opacity="1" style="mix-blend-mode:passthrough"/></g><g><path d="M167,232C174.26,232,181.52,232,189,232C189,239.26,189,246.52,189,254C181.74,254,174.48,254,167,254C167,246.74,167,239.48,167,232Z" fill="#6F4FAB" fill-opacity="1" style="mix-blend-mode:passthrough"/></g><g><path d="M277,210C284.26,210,291.52,210,299,210C299,217.26,299,224.52,299,232C291.74,232,284.48,232,277,232C277,224.74,277,217.48,277,210Z" fill="#CFA0F3" fill-opacity="1" style="mix-blend-mode:passthrough"/></g><g><path d="M189,210C196.26,210,203.52,210,211,210C211,217.26,211,224.52,211,232C203.74,232,196.48,232,189,232C189,224.74,189,217.48,189,210Z" fill="#6F4FAB" fill-opacity="1" style="mix-blend-mode:passthrough"/></g><g><path d="M321,188C328.26,188,335.52,188,343,188C343,195.26,343,202.52,343,210C335.74,210,328.48,210,321,210C321,202.74,321,195.48,321,188Z" fill="#CFA0F3" fill-opacity="1" style="mix-blend-mode:passthrough"/></g><g><path d="M299,188C306.26,188,313.52,188,321,188C321,195.26,321,202.52,321,210C313.74,210,306.48,210,299,210C299,202.74,299,195.48,299,188Z" fill="#FFFDD5" fill-opacity="1" style="mix-blend-mode:passthrough"/></g><g><path d="M211,188C218.26,188,225.52,188,233,188C233,195.26,233,202.52,233,210C225.74,210,218.48,210,211,210C211,202.74,211,195.48,211,188Z" fill="#6F4FAB" fill-opacity="1" style="mix-blend-mode:passthrough"/></g><g><path d="M343,166C350.26,166,357.52,166,365,166C365,173.26,365,180.52,365,188C357.74,188,350.48,188,343,188C343,180.74,343,173.48,343,166Z" fill="#CFA0F3" fill-opacity="1" style="mix-blend-mode:passthrough"/></g><g><path d="M321,166C328.26,166,335.52,166,343,166C343,173.26,343,180.52,343,188C335.74,188,328.48,188,321,188C321,180.74,321,173.48,321,166Z" fill="#FFFDD5" fill-opacity="1" style="mix-blend-mode:passthrough"/></g><g><path d="M233,166C240.26,166,247.52,166,255,166C255,173.26,255,180.52,255,188C247.74,188,240.48,188,233,188C233,180.74,233,173.48,233,166Z" fill="#6F4FAB" fill-opacity="1" style="mix-blend-mode:passthrough"/></g><g><path d="M255,144C262.26,144,269.52,144,277,144C277,151.26,277,158.52,277,166C269.74,166,262.48,166,255,166C255,158.74,255,151.48,255,144Z" fill="#6F4FAB" fill-opacity="1" style="mix-blend-mode:passthrough"/></g></g></g></g></g></svg>