<svg xmlns="http://www.w3.org/2000/svg" fill="none" width="512" height="512"><defs><filter id="a" filterUnits="objectBoundingBox" color-interpolation-filters="sRGB" x="0" y="0" width="1" height="1"><feFlood flood-opacity="0" result="BackgroundImageFix"/><feBlend in="SourceGraphic" in2="BackgroundImageFix" result="shape"/><feGaussianBlur in="BackgroundImageFix" stdDeviation="500"/><feComposite in2="SourceAlpha" operator="in" result="effect1_foregroundBlur"/><feBlend in="SourceGraphic" in2="effect1_foregroundBlur" result="shape"/></filter><filter id="c" filterUnits="objectBoundingBox" color-interpolation-filters="sRGB" x="0" y="0" width="1" height="1"><feFlood flood-opacity="0" result="BackgroundImageFix"/><feBlend in="SourceGraphic" in2="BackgroundImageFix" result="shape"/><feColorMatrix in="SourceAlpha" result="hardAlpha" values="0 0 0 0 0 0 0 0 0 0 0 0 0 0 0 0 0 0 127 0"/><feOffset dy="12" dx="10"/><feGaussianBlur stdDeviation="6"/><feComposite in2="hardAlpha" operator="arithmetic" k2="-1" k3="1"/><feColorMatrix values="0 0 0 0 0 0 0 0 0 0 0 0 0 0 0 0 0 0 0.20000000298023224 0"/><feBlend in2="shape" result="effect1_innerShadow"/><feGaussianBlur in="BackgroundImageFix" stdDeviation="15"/><feComposite in2="SourceAlpha" operator="in" result="effect2_foregroundBlur"/><feBlend in="SourceGraphic" in2="effect2_foregroundBlur" result="shape"/></filter><filter id="f" filterUnits="objectBoundingBox" color-interpolation-filters="sRGB" x="-.031" y="-.025" width="1.125" height="1.125"><feFlood flood-opacity="0" result="BackgroundImageFix"/><feColorMatrix in="SourceAlpha" values="0 0 0 0 0 0 0 0 0 0 0 0 0 0 0 0 0 0 127 0"/><feOffset dy="12" dx="10"/><feGaussianBlur stdDeviation="5"/><feColorMatrix values="0 0 0 0 0 0 0 0 0 0 0 0 0 0 0 0 0 0 0.30000001192092896 0"/><feBlend in2="BackgroundImageFix" result="effect1_dropShadow"/><feBlend in="SourceGraphic" in2="effect1_dropShadow" result="shape"/></filter><linearGradient x1="0" y1="0" x2=".844" y2="1.118" id="d"><stop offset="1.667%" stop-color="#967948"/><stop offset="100%" stop-color="#F4C779"/></linearGradient><linearGradient x1="0" y1="0" x2=".844" y2="1.118" id="e"><stop offset="0%" stop-color="#967948"/><stop offset="100%" stop-color="#F4C779"/></linearGradient><clipPath id="b"><rect width="512" height="512" rx="0"/></clipPath><clipPath id="g"><rect x="92" y="92" width="320" height="320" rx="0"/></clipPath></defs><g filter="url(#a)"><g clip-path="url(#b)"><rect width="512" height="512" rx="0" fill="none"/><g filter="url(#c)"><path d="M251.831 17.796c1.981-1.144 2.665-1.539 3.393-1.693a4.693 4.693 0 0 1 1.952 0c.728.154 1.412.55 3.393 1.693l199.462 115.16c1.981 1.143 2.665 1.538 3.163 2.091.44.489.773 1.065.976 1.691.23.707.23 1.497.23 3.785v230.319c0 2.287 0 3.077-.23 3.785a4.702 4.702 0 0 1-.976 1.691c-.498.552-1.182.947-3.163 2.091L260.569 493.568c-1.981 1.144-2.665 1.539-3.393 1.694a4.687 4.687 0 0 1-1.952 0c-.728-.155-1.412-.55-3.393-1.694L52.369 378.409c-1.981-1.144-2.665-1.539-3.163-2.091a4.703 4.703 0 0 1-.976-1.691c-.23-.708-.23-1.498-.23-3.785V140.523c0-2.288 0-3.078.23-3.785a4.694 4.694 0 0 1 .976-1.691c.498-.553 1.182-.948 3.163-2.091L251.83 17.796z" fill="url(#d)"/><path d="M250.581 15.63 51.119 130.79q-3.008 1.737-3.77 2.584-1.024 1.137-1.497 2.591-.352 1.084-.352 4.558v230.319q0 3.473.352 4.557.473 1.455 1.496 2.591.763.847 3.77 2.583v.001l199.463 115.16q3.008 1.736 4.123 1.973 1.496.318 2.992 0 1.115-.237 4.123-1.973l199.462-115.16.002-.001q3.006-1.736 3.769-2.583 1.023-1.136 1.496-2.591.352-1.084.352-4.557V140.523q0-3.474-.352-4.558-.473-1.454-1.496-2.591-.763-.847-3.771-2.584L261.819 15.63q-3.008-1.736-4.123-1.973-1.496-.318-2.992 0-1.115.237-4.123 1.974zM51.064 136.72q.233-.259 2.555-1.599L253.08 19.961q2.322-1.34 2.663-1.413.456-.097.912 0 .341.072 2.663 1.413l199.462 115.16q2.322 1.34 2.555 1.599.312.347.456.79.108.331.108 3.013v230.319q0 2.681-.107 3.012-.145.444-.457.791-.233.258-2.553 1.598l-.002.001-199.462 115.159q-2.322 1.341-2.662 1.414-.457.097-.914 0-.34-.073-2.662-1.414L53.619 376.244l-.002-.001q-2.32-1.34-2.553-1.598-.312-.347-.457-.791-.107-.331-.107-3.012V140.523q0-2.682.107-3.013.145-.443.457-.79z" fill-rule="evenodd" fill="url(#e)"/></g><g filter="url(#f)"><g clip-path="url(#g)"><path d="M272 132h100v100h-20v20h-20v20h-20v20h-20v20h-20v20h-20v20h-20v20h-20v20h-40v-20h-20v-20h-20v-80h20v-20h20v-20h20v-20h20v-20h20v-20h20v-20h20v-20z" fill="#B38EF3" style="mix-blend-mode:passthrough"/><path d="M152 252h20v20h40v20h20v40h20v20h-20v20h-20v20h-40v-20h-20v-20h-20v-80h20v-20z" fill="#8D6ACC" style="mix-blend-mode:passthrough"/><path d="M272 132h100v100h-20v20h-20v20h-20v20h-20v-80h40v-20h20v-40h-80v-20z" fill="#6F4FAB" style="mix-blend-mode:passthrough"/><path d="M212 192h40v140h-20v-40h-20v-20h-40v-40h20v-20h20v-20z" fill="#CFA0F3" style="mix-blend-mode:passthrough"/><path d="M132 292h20v20h60v40h-20v20h20v20h-40v-20h-20v-20h-20v-60z" fill="#54398A" style="mix-blend-mode:passthrough"/><path d="M272 152h80v40h-20v20h-40v-20h-20v-40z" fill="#FECBE6" style="mix-blend-mode:passthrough"/><path d="M272 132h100v100h-20v-80h-80v-20z" fill="#6F4FAB" style="mix-blend-mode:passthrough"/><path d="M232 192h20v140h-20v-40h-20v-20h20v-80z" fill="#B38EF3" style="mix-blend-mode:passthrough"/><path d="M152 252h20v20h40v20h-20v20h-40v-20h-20v-20h20v-20z" fill="#8D6ACC" style="mix-blend-mode:passthrough"/><path d="M252 252h20v40h20v20h-20v20h-20v-80z" fill="#6F4FAB" style="mix-blend-mode:passthrough"/><path d="M332 192h20v60h-40v-40h20v-20z" fill="#8D6ACC" style="mix-blend-mode:passthrough"/><path d="M172 232h40v40h-40v-40z" fill="#B38EF3" style="mix-blend-mode:passthrough"/><path d="M232 192h20v80h-20v-80z" fill="#FECBE6" style="mix-blend-mode:passthrough"/><path d="M352 152h20v80h-20v-80z" fill="#54398A" style="mix-blend-mode:passthrough"/><path d="M272 232h20v60h-20v-60z" fill="#8D6ACC" style="mix-blend-mode:passthrough"/><path d="M172 372h40v20h-40v-20zM192 352h40v20h-40v-20z" fill="#6F4FAB" style="mix-blend-mode:passthrough"/><path d="M192 352h20v20h-20v-20z" fill="#8D6ACC" style="mix-blend-mode:passthrough"/><path d="M232 332h20v20h-20v-20z" fill="#54398A" style="mix-blend-mode:passthrough"/><path d="M172 332h20v20h-20v-20z" fill="#6F4FAB" style="mix-blend-mode:passthrough"/><path d="M252 312h20v20h-20v-20z" fill="#54398A" style="mix-blend-mode:passthrough"/><path d="M192 312h20v20h-20v-20z" fill="#6F4FAB" style="mix-blend-mode:passthrough"/><path d="M272 292h20v20h-20v-20z" fill="#54398A" style="mix-blend-mode:passthrough"/><path d="M192 292h20v20h-20v-20z" fill="#B38EF3" style="mix-blend-mode:passthrough"/><path d="M152 292h20v20h-20v-20z" fill="#6F4FAB" style="mix-blend-mode:passthrough"/><path d="M292 272h20v20h-20v-20z" fill="#54398A" style="mix-blend-mode:passthrough"/><path d="M212 272h20v20h-20v-20z" fill="#FECBE6" style="mix-blend-mode:passthrough"/><path d="M132 272h20v20h-20v-20z" fill="#6F4FAB" style="mix-blend-mode:passthrough"/><path d="M312 252h20v20h-20v-20z" fill="#54398A" style="mix-blend-mode:passthrough"/><path d="M232 252h20v20h-20v-20z" fill="#FFFDD5" style="mix-blend-mode:passthrough"/><path d="M152 252h20v20h-20v-20z" fill="#6F4FAB" style="mix-blend-mode:passthrough"/><path d="M332 232h20v20h-20v-20z" fill="#54398A" style="mix-blend-mode:passthrough"/><path d="M252 232h20v20h-20v-20z" fill="#CFA0F3" style="mix-blend-mode:passthrough"/><path d="M172 232h20v20h-20v-20z" fill="#6F4FAB" style="mix-blend-mode:passthrough"/><path d="M272 212h20v20h-20v-20z" fill="#CFA0F3" style="mix-blend-mode:passthrough"/><path d="M192 212h20v20h-20v-20z" fill="#6F4FAB" style="mix-blend-mode:passthrough"/><path d="M312 192h20v20h-20v-20z" fill="#CFA0F3" style="mix-blend-mode:passthrough"/><path d="M292 192h20v20h-20v-20z" fill="#FFFDD5" style="mix-blend-mode:passthrough"/><path d="M212 192h20v20h-20v-20z" fill="#6F4FAB" style="mix-blend-mode:passthrough"/><path d="M332 172h20v20h-20v-20z" fill="#CFA0F3" style="mix-blend-mode:passthrough"/><path d="M312 172h20v20h-20v-20z" fill="#FFFDD5" style="mix-blend-mode:passthrough"/><path d="M232 172h20v20h-20v-20zM252 152h20v20h-20v-20z" fill="#6F4FAB" style="mix-blend-mode:passthrough"/></g></g></g></g></svg>