<?xml version="1.0" encoding="utf-8"?>
<!-- Generator: Adobe Illustrator 15.0.0, SVG Export Plug-In . SVG Version: 6.00 Build 0)  -->
<!DOCTYPE svg PUBLIC "-//W3C//DTD SVG 1.1//EN" "http://www.w3.org/Graphics/SVG/1.1/DTD/svg11.dtd">
<svg version="1.1" xmlns="http://www.w3.org/2000/svg" xmlns:xlink="http://www.w3.org/1999/xlink" x="0px" y="0px" width="128px"
	 height="128px" viewBox="0 0 128 128" enable-background="new 0 0 128 128" xml:space="preserve">
<g id="Layer_2">
	<rect x="12.516" y="22.612" fill="#FFFFFF" width="93.187" height="72.422"/>
	<rect x="65.812" y="57.508" fill="#FFFFFF" width="62.188" height="60.392"/>
</g>
<g id="Layer_1">
	<linearGradient id="SVGID_1_" gradientUnits="userSpaceOnUse" x1="64" y1="4.6826" x2="64" y2="115.0601">
		<stop  offset="0" style="stop-color:#60C6F2"/>
		<stop  offset="0.8427" style="stop-color:#005CA9"/>
		<stop  offset="0.9944" style="stop-color:#164194"/>
	</linearGradient>
	<path fill="url(#SVGID_1_)" d="M102.553,15.525c-4.043-5.747-12.72-5.421-18.453-5.421c-5.519,0-58.918,0-63.066,0l0,0
		c-12.086,0-21.03,0-21.03,0s0,57.585,0,63.325c0,5.731-0.324,14.406,5.422,18.449c2.266,1.597,4.805,2.563,7.091,3.155V22.612
		h93.187C105.11,20.327,104.143,17.79,102.553,15.525z M125.933,42.766c-1.136-2.382-2.645-4.149-4.235-5.629
		c-3.087-2.846-8.79-4.557-13.777-4.557H72.613c-22.905,0-50.417,0-50.417,0s0,52.806,0,63.142v1.527
		c0,4.512,0.812,7.855,2.066,10.467c1.136,2.381,2.645,4.149,4.238,5.625c3.08,2.851,8.789,4.559,13.772,4.559h77.053L79.235,78.863
		v15.478c0,5.233,0,9.118,0,9.118s-1.626,0-3.456,0c-2.376,0-3.962-0.309-6.059-2.289c-2.113-1.965-2.094-5.984-2.094-5.984V58.73
		h37.333c0,0,4.02-0.024,5.984,2.088c1.979,2.099,2.287,3.688,2.287,6.058c0,1.833,0,3.459,0,3.459s-3.034,0-7.359,0l0.002,0.011
		H88.022L128,109.304V69.951c0-0.899,0-1.421,0-1.421V53.231C128,48.719,127.188,45.378,125.933,42.766z"/>
</g>
</svg>
